<svg width="182" height="48" viewBox="0 0 182 48" fill="none" xmlns="http://www.w3.org/2000/svg">
<path d="M72.1792 1.50235V13.7437H72.0255C71.8206 13.2827 69.3109 10.7217 64.65 10.7217C58.7086 10.7217 52.0502 15.229 52.0502 24.5508C52.0502 33.8727 58.7086 38.3799 64.65 38.3799C69.3109 38.3799 71.8206 35.819 72.0255 35.358H72.1792V37.8677H81.04V1.50235H72.1792ZM66.5451 30.5434C63.472 30.5434 60.7574 28.2898 60.7574 24.5508C60.7574 20.8119 63.472 18.5582 66.5451 18.5582C69.7207 18.5582 72.384 20.7606 72.384 24.5508C72.384 28.341 69.7207 30.5434 66.5451 30.5434Z" fill="black"/>
<path d="M85.5425 9.13396H94.4033V1.50235H85.5425V9.13396ZM85.5425 37.8677H94.4033V11.2339H85.5425V37.8677Z" fill="black"/>
<path d="M110.217 38.3799C114.878 38.3799 117.387 35.819 117.592 35.358H117.746V37.8677H126.607V11.2339H117.746V13.7437H117.592C117.387 13.2827 114.878 10.7217 110.217 10.7217C104.275 10.7217 97.6169 15.229 97.6169 24.5508C97.6169 33.8727 104.275 38.3799 110.217 38.3799ZM112.112 30.5434C109.039 30.5434 106.324 28.2898 106.324 24.5508C106.324 20.8119 109.039 18.5582 112.112 18.5582C115.287 18.5582 117.951 20.7606 117.951 24.5508C117.951 28.341 115.287 30.5434 112.112 30.5434Z" fill="black"/>
<path d="M148.114 10.7217C143.402 10.7217 140.841 14.1022 139.97 18.507V11.2339H131.109V37.8677H139.97V27.5215C139.97 22.707 142.838 19.2241 148.165 19.2241C148.882 19.2241 149.446 19.2753 150.111 19.4289V10.9778C149.394 10.773 148.729 10.7217 148.114 10.7217Z" fill="black"/>
<path d="M172.985 11.2339L166.788 27.5215L160.539 11.2339H151.525L162.537 37.6116L158.183 47.5993H166.839L182 11.2339H172.985Z" fill="black"/>
<path fill-rule="evenodd" clip-rule="evenodd" d="M9.03494 0.52066C4.55611 0.52066 0.925293 4.15148 0.925293 8.63031V36.1604C0.925293 40.6393 4.55611 44.2701 9.03494 44.2701H19.5988C31.6799 44.2701 41.4735 34.4764 41.4735 22.3954C41.4735 10.3143 31.6799 0.52066 19.5988 0.52066H17.9983V18.6607L13.73 14.3924L9.46179 18.6607V0.52066H9.03494Z" fill="url(#paint0_linear_66_178)"/>
<defs>
<linearGradient id="paint0_linear_66_178" x1="21.1994" y1="0.52066" x2="21.1994" y2="44.2701" gradientUnits="userSpaceOnUse">
<stop stop-color="#1DE15C"/>
<stop offset="1" stop-color="#EEFF20"/>
</linearGradient>
</defs>
</svg>
