<svg width="309" height="309" viewBox="0 0 309 309" fill="none" xmlns="http://www.w3.org/2000/svg">
<path d="M278.687 246.199H37.6671V256.087H278.687V246.199Z" fill="url(#paint0_linear_22_850)"/>
<path opacity="0.5" d="M278.687 246.199H37.6671V256.087H278.687V246.199Z" fill="white"/>
<path d="M51.3488 223.945C51.3488 223.945 48.3577 217.264 47.6408 216.578C46.924 215.892 41.1951 213.816 39.6068 208.544C38.0186 203.273 35.0027 189.201 42.6041 190.122C50.2055 191.042 48.3577 205.782 51.1202 205.318C53.8826 204.855 48.8212 181.377 53.654 178.126C58.4867 174.875 66.3168 177.897 65.396 190.332C64.4752 202.766 62.6335 209.898 64.2465 209.212C65.8595 208.526 70.4636 205.986 70.4636 211.282C70.4636 216.578 66.0881 220.261 63.5543 220.49C61.0205 220.719 59.8463 220.954 59.8463 220.954V224.402L51.3488 223.945Z" fill="black" stroke="black" stroke-linecap="round" stroke-linejoin="round"/>
<path d="M48.9139 210.998C47.1773 209.354 45.5829 207.759 44.8475 206.295C43.389 203.371 42.2889 195.171 42.2889 195.171" stroke="white" stroke-width="0.5" stroke-linecap="round" stroke-linejoin="round"/>
<path d="M39.6996 199.175C40.849 203.965 41.0097 207.574 44.4829 211.776C46.3369 214.05 51.2438 215.979 51.7938 217.987C52.2859 220.404 52.6551 222.844 52.9 225.298L55.644 225.483C55.644 225.483 56.2002 220.725 54.6304 217.332" stroke="white" stroke-width="0.5" stroke-linecap="round" stroke-linejoin="round"/>
<path d="M40.4659 191.493C40.4659 191.493 38.4141 193.069 39.1433 196.95" stroke="white" stroke-width="0.5" stroke-linecap="round" stroke-linejoin="round"/>
<path d="M53.6108 205.627L52.5231 207.388" stroke="white" stroke-width="0.5" stroke-linecap="round" stroke-linejoin="round"/>
<path d="M53.9877 205.015L53.6108 205.627" stroke="white" stroke-width="0.5" stroke-linecap="round" stroke-linejoin="round"/>
<path d="M57.6401 178.701C57.6401 178.701 53.4377 178.522 53.4377 182.539C53.4377 185.931 54.4759 197.513 54.2535 202.809" stroke="white" stroke-width="0.5" stroke-linecap="round" stroke-linejoin="round"/>
<path d="M60.934 211.609C60.8351 212.988 60.7733 213.964 60.7733 214.335C60.7733 216.343 65.8842 208.668 68.2635 208.488C68.2635 208.488 70.6366 208.303 69.7219 212.691C69.3892 214.32 68.6183 215.827 67.4922 217.05C66.3662 218.273 64.9277 219.165 63.3319 219.631C61.3172 220.181 59.6733 219.266 59.3087 220.181C59.0176 221.256 58.8334 222.357 58.7587 223.469" stroke="white" stroke-width="0.5" stroke-linecap="round" stroke-linejoin="round"/>
<path d="M62.1268 182.514C62.4445 183.839 62.594 185.199 62.5717 186.562C62.5717 190.838 61.756 200.924 61.2121 207.735" stroke="white" stroke-width="0.5" stroke-linecap="round" stroke-linejoin="round"/>
<path d="M60.0132 179.072C60.5621 179.386 61.0068 179.855 61.2925 180.419" stroke="white" stroke-width="0.5" stroke-linecap="round" stroke-linejoin="round"/>
<path d="M57.0406 210.497L56.9108 213.055" stroke="white" stroke-width="0.5" stroke-linecap="round" stroke-linejoin="round"/>
<path d="M58.0047 181.259C58.0047 181.259 56.9109 181.624 57.2755 185.462C57.5783 188.632 57.2755 203.025 57.1334 207.938" stroke="white" stroke-width="0.5" stroke-linecap="round" stroke-linejoin="round"/>
<path d="M69.5181 209.582C67.9508 212.515 65.4404 214.834 62.3925 216.164C57.4485 218.173 57.2755 217.258 57.2755 219.254C57.2755 221.25 57.0901 224.921 57.0901 224.921" stroke="white" stroke-width="0.5" stroke-linecap="round" stroke-linejoin="round"/>
<path d="M62.6644 250.889H46.6953L43.2778 227.758H66.082L62.6644 250.889Z" fill="url(#paint1_linear_22_850)" stroke="black" stroke-linecap="round" stroke-linejoin="round"/>
<path d="M68.041 224.112H41.3187V230.304H68.041V224.112Z" fill="url(#paint2_linear_22_850)" stroke="black" stroke-linecap="round" stroke-linejoin="round"/>
<path d="M170.519 235.316V222.758H133.537V235.316C133.531 239.406 132.147 243.375 129.607 246.582L127.988 248.621H176.068L174.449 246.582C171.909 243.375 170.525 239.406 170.519 235.316Z" fill="white" stroke="black" stroke-linecap="round" stroke-linejoin="round"/>
<path d="M131.263 244.11H172.793C171.302 241.419 170.519 238.393 170.519 235.316V222.758H133.537V235.316C133.537 238.393 132.754 241.419 131.263 244.11Z" fill="url(#paint3_linear_22_850)"/>
<path d="M221.102 115.238H82.948C80.0536 115.238 77.7073 117.585 77.7073 120.479V221.479C77.7073 224.373 80.0536 226.719 82.948 226.719H221.102C223.996 226.719 226.343 224.373 226.343 221.479V120.479C226.343 117.585 223.996 115.238 221.102 115.238Z" fill="black" stroke="black" stroke-linecap="round" stroke-linejoin="round"/>
<path d="M77.7073 209.391H226.349V221.473C226.349 222.863 225.797 224.196 224.814 225.178C223.831 226.161 222.498 226.713 221.108 226.713H82.9541C81.5642 226.713 80.2313 226.161 79.2485 225.178C78.2656 224.196 77.7135 222.863 77.7135 221.473V209.391H77.7073Z" fill="white" stroke="black" stroke-linecap="round" stroke-linejoin="round"/>
<path d="M218.871 122.179H85.1851V200.937H218.871V122.179Z" fill="white" stroke="black" stroke-linecap="round" stroke-linejoin="round"/>
<path d="M154.772 218.055C154.772 217.512 154.611 216.982 154.309 216.531C154.008 216.079 153.579 215.728 153.078 215.52C152.577 215.312 152.025 215.258 151.493 215.364C150.96 215.47 150.471 215.731 150.088 216.115C149.704 216.499 149.443 216.988 149.337 217.52C149.231 218.052 149.285 218.604 149.493 219.105C149.701 219.607 150.052 220.035 150.504 220.337C150.955 220.638 151.485 220.799 152.028 220.799C152.756 220.799 153.454 220.51 153.968 219.995C154.483 219.481 154.772 218.783 154.772 218.055Z" fill="black" stroke="black" stroke-linecap="round" stroke-linejoin="round"/>
<path d="M176.074 248.646H127.988V250.889H176.074V248.646Z" fill="white" stroke="black" stroke-linecap="round" stroke-linejoin="round"/>
<path d="M217.616 127.728H86.2357V134.631H217.616V127.728Z" fill="white" stroke="black" stroke-linecap="round" stroke-linejoin="round"/>
<path d="M107.915 134.631L106.339 130.367H86.2357V134.631V140.286V197.581H217.616V134.631H107.915Z" fill="url(#paint4_linear_22_850)" stroke="black" stroke-linecap="round" stroke-linejoin="round"/>
<path d="M121.598 165.846H183.2" stroke="black" stroke-width="2" stroke-linecap="round" stroke-linejoin="round"/>
<path d="M121.598 171.903H183.2" stroke="black" stroke-width="2" stroke-linecap="round" stroke-linejoin="round"/>
<path d="M121.598 177.959H183.2" stroke="black" stroke-width="2" stroke-linecap="round" stroke-linejoin="round"/>
<path d="M121.598 184.022H183.2" stroke="black" stroke-width="2" stroke-linecap="round" stroke-linejoin="round"/>
<path d="M179.943 149.698H124.119C123.545 149.699 122.975 149.587 122.444 149.367C121.913 149.148 121.43 148.827 121.023 148.421C120.617 148.015 120.294 147.533 120.073 147.003C119.852 146.472 119.738 145.903 119.737 145.329C119.737 144.754 119.849 144.185 120.068 143.654C120.287 143.123 120.609 142.64 121.015 142.233C121.42 141.826 121.902 141.503 122.433 141.283C122.963 141.062 123.532 140.948 124.107 140.947H179.943C180.519 140.946 181.089 141.059 181.621 141.279C182.153 141.499 182.636 141.822 183.043 142.229C183.45 142.636 183.773 143.119 183.993 143.651C184.213 144.183 184.325 144.753 184.325 145.329C184.324 145.903 184.21 146.472 183.989 147.003C183.769 147.533 183.446 148.015 183.039 148.421C182.632 148.827 182.149 149.148 181.618 149.367C181.087 149.587 180.518 149.699 179.943 149.698Z" fill="white" stroke="black" stroke-linecap="round" stroke-linejoin="round"/>
<path d="M179.943 149.698H172.317V140.935H179.943C180.519 140.934 181.089 141.047 181.621 141.267C182.153 141.487 182.636 141.809 183.043 142.216C183.45 142.623 183.773 143.107 183.993 143.639C184.213 144.171 184.326 144.741 184.325 145.317C184.326 145.892 184.213 146.462 183.993 146.994C183.773 147.526 183.45 148.01 183.043 148.417C182.636 148.824 182.153 149.146 181.621 149.366C181.089 149.586 180.519 149.699 179.943 149.698Z" fill="black" stroke="black" stroke-linecap="round" stroke-linejoin="round"/>
<path d="M178.244 142.047C177.88 141.707 177.425 141.482 176.934 141.401C176.443 141.32 175.939 141.386 175.486 141.592C175.032 141.797 174.65 142.132 174.388 142.555C174.125 142.978 173.994 143.469 174.01 143.966C174.026 144.463 174.19 144.944 174.48 145.349C174.77 145.753 175.173 146.062 175.639 146.237C176.105 146.412 176.612 146.445 177.097 146.332C177.581 146.219 178.021 145.964 178.361 145.601C178.587 145.361 178.764 145.079 178.881 144.77C178.998 144.462 179.053 144.134 179.043 143.804C179.032 143.474 178.957 143.15 178.821 142.85C178.685 142.549 178.491 142.279 178.25 142.053L178.244 142.047ZM177.996 145.261C177.723 145.551 177.371 145.753 176.983 145.843C176.595 145.932 176.19 145.905 175.817 145.764C175.445 145.623 175.123 145.375 174.891 145.051C174.66 144.728 174.529 144.343 174.516 143.945C174.503 143.547 174.609 143.154 174.819 142.816C175.029 142.478 175.334 142.21 175.697 142.045C176.059 141.881 176.462 141.827 176.855 141.891C177.248 141.955 177.613 142.134 177.904 142.406C178.294 142.772 178.524 143.279 178.541 143.814C178.558 144.35 178.362 144.87 177.996 145.261Z" fill="white"/>
<path d="M180.135 146.515C180.079 146.462 180.01 146.425 179.934 146.409C179.859 146.394 179.78 146.401 179.708 146.429L178.8 145.576C178.754 145.531 178.691 145.505 178.627 145.505C178.562 145.505 178.5 145.531 178.454 145.576L178.373 145.663C178.329 145.711 178.304 145.773 178.304 145.839C178.304 145.904 178.329 145.967 178.373 146.015L179.269 146.855C179.243 146.932 179.239 147.014 179.257 147.093C179.276 147.172 179.317 147.244 179.375 147.3L180.92 148.814C181.021 148.916 181.159 148.972 181.303 148.972C181.446 148.972 181.584 148.916 181.686 148.814C181.787 148.713 181.844 148.575 181.844 148.431C181.844 148.288 181.787 148.15 181.686 148.048L180.135 146.515Z" fill="white"/>
<path d="M196.091 176.13C196.272 176.578 196.541 176.985 196.881 177.326C197.222 177.668 197.628 177.938 198.075 178.12C198.774 178.404 199.707 178.342 200.782 178.948C203.211 180.314 209.273 179.096 213.667 179.566C218.061 180.036 223.982 175.172 223.982 175.172L241.416 176.13V158.826C241.416 158.826 223.222 159.586 219.279 158.066C215.336 156.546 210.942 153.369 208.971 153.517C206.999 153.666 190.777 155.489 190.777 155.489L196.085 176.13H196.091Z" fill="white" stroke="black" stroke-linecap="round" stroke-linejoin="round"/>
<path d="M191.58 106.358C187.98 106.756 184.58 108.213 181.808 110.544C179.036 112.876 177.018 115.976 176.009 119.454C175 122.933 175.044 126.632 176.137 130.085C177.23 133.537 179.323 136.588 182.15 138.852C184.977 141.116 188.412 142.49 192.02 142.801C195.628 143.113 199.248 142.347 202.421 140.602C205.594 138.856 208.178 136.209 209.847 132.994C211.515 129.78 212.193 126.143 211.795 122.543C211.532 120.153 210.8 117.837 209.641 115.729C208.483 113.622 206.92 111.763 205.043 110.26C203.165 108.757 201.01 107.638 198.7 106.969C196.39 106.299 193.97 106.092 191.58 106.358ZM195.214 139.161C192.326 139.482 189.408 138.939 186.829 137.602C184.25 136.264 182.125 134.192 180.724 131.647C179.323 129.102 178.707 126.199 178.956 123.304C179.205 120.409 180.306 117.653 182.121 115.385C183.936 113.116 186.383 111.436 189.152 110.558C191.922 109.68 194.89 109.643 197.68 110.452C200.471 111.26 202.959 112.878 204.83 115.101C206.701 117.324 207.871 120.051 208.192 122.939C208.405 124.856 208.238 126.797 207.701 128.65C207.164 130.502 206.268 132.231 205.063 133.738C203.858 135.244 202.368 136.499 200.678 137.429C198.988 138.36 197.131 138.948 195.214 139.161Z" fill="white" stroke="black" stroke-linecap="round" stroke-linejoin="round"/>
<path d="M191.481 105.313C187.881 105.712 184.481 107.169 181.709 109.5C178.938 111.831 176.919 114.932 175.91 118.41C174.901 121.888 174.945 125.587 176.038 129.04C177.131 132.493 179.224 135.544 182.051 137.808C184.878 140.071 188.313 141.446 191.921 141.757C195.529 142.068 199.149 141.303 202.322 139.557C205.495 137.812 208.079 135.164 209.748 131.95C211.416 128.735 212.094 125.098 211.696 121.499C211.16 116.673 208.73 112.257 204.939 109.221C201.148 106.186 196.308 104.781 191.481 105.313ZM195.115 138.117C192.227 138.438 189.309 137.895 186.73 136.557C184.151 135.22 182.026 133.148 180.625 130.603C179.224 128.058 178.608 125.154 178.857 122.259C179.106 119.365 180.207 116.609 182.022 114.34C183.837 112.071 186.284 110.392 189.054 109.514C191.823 108.636 194.791 108.599 197.581 109.407C200.372 110.216 202.86 111.834 204.731 114.056C206.602 116.279 207.772 119.007 208.093 121.894C208.306 123.812 208.139 125.752 207.602 127.605C207.066 129.458 206.169 131.187 204.964 132.693C203.759 134.2 202.269 135.454 200.579 136.385C198.889 137.315 197.032 137.904 195.115 138.117Z" fill="white" stroke="black" stroke-linecap="round" stroke-linejoin="round"/>
<path d="M196.114 142.054L195.247 142.15C194.27 142.258 193.566 143.137 193.674 144.114L195.08 156.805C195.188 157.782 196.068 158.486 197.045 158.378L197.911 158.282C198.888 158.174 199.592 157.294 199.484 156.317L198.079 143.627C197.97 142.65 197.091 141.945 196.114 142.054Z" fill="url(#paint5_linear_22_850)" stroke="black" stroke-linecap="round" stroke-linejoin="round"/>
<path d="M195.832 152.646L197.686 152.448C198.483 152.363 199.282 152.595 199.909 153.095C200.536 153.595 200.941 154.322 201.035 155.118L203.81 180.215C203.923 181.241 203.624 182.27 202.978 183.075C202.333 183.881 201.394 184.397 200.368 184.51H200.244C199.736 184.567 199.222 184.523 198.731 184.38C198.24 184.238 197.782 184 197.383 183.68C196.984 183.36 196.652 182.965 196.406 182.517C196.16 182.069 196.005 181.576 195.949 181.068L193.174 155.977C193.13 155.58 193.164 155.177 193.275 154.793C193.386 154.409 193.572 154.051 193.821 153.738C194.071 153.426 194.38 153.166 194.73 152.973C195.08 152.781 195.465 152.659 195.863 152.615L195.832 152.646Z" fill="black" stroke="black" stroke-linecap="round" stroke-linejoin="round"/>
<path d="M198.526 173.559C198.526 173.559 194.132 173.72 193.514 174.48C192.896 175.24 193.008 177.885 194.2 178.188C197.241 178.985 203.705 178.522 203.959 177.978C204.212 177.434 204.731 174.27 203.396 173.93C201.785 173.683 200.157 173.559 198.526 173.559Z" fill="white" stroke="black" stroke-linecap="round" stroke-linejoin="round"/>
<path d="M197.259 167.429C197.259 167.429 192.149 167.237 191.351 168.158C190.554 169.079 190.4 172.521 191.747 173.04C195.183 174.356 202.914 173.843 203.266 173.164C203.619 172.484 204.385 168.955 202.871 168.386C201.357 167.818 197.259 167.429 197.259 167.429Z" fill="white" stroke="black" stroke-linecap="round" stroke-linejoin="round"/>
<path d="M196.524 160.507C196.524 160.507 191.061 160.297 190.208 161.286C189.355 162.274 189.188 165.945 190.628 166.502C194.336 167.911 202.37 167.911 202.747 167.181C203.124 166.452 204.138 162.138 202.519 161.527C200.899 160.915 196.524 160.507 196.524 160.507Z" fill="white" stroke="black" stroke-linecap="round" stroke-linejoin="round"/>
<path d="M193.372 154.03C193.372 154.03 187.909 153.826 187.056 154.809C186.203 155.792 185.999 159.58 187.476 160.025C188.953 160.47 199.218 161.434 199.595 160.711C199.972 159.988 200.986 155.662 199.367 155.05C197.748 154.438 193.372 154.03 193.372 154.03Z" fill="white" stroke="black" stroke-linecap="round" stroke-linejoin="round"/>
<path d="M211.263 172.206C210.283 171.936 209.353 171.506 208.513 170.933C204.119 167.898 204.268 160.927 204.268 160.927L203.211 160.624C202.338 160.292 201.519 159.832 200.782 159.259C201.136 160.699 201.343 162.171 201.4 163.653C201.384 164.467 201.066 165.246 200.507 165.839C199.949 166.432 199.19 166.796 198.378 166.86C197.012 167.014 196.407 167.163 195.949 165.346C195.492 163.529 193.224 156.249 193.069 155.186C192.933 154.222 194.553 152.504 197.13 152.096C201.091 152.417 204.997 153.524 208.989 153.524C210.378 153.654 211.709 154.144 212.852 154.945" fill="white"/>
<path d="M211.263 172.206C210.283 171.936 209.353 171.506 208.513 170.933C204.119 167.898 204.268 160.927 204.268 160.927L203.211 160.624C202.338 160.292 201.519 159.832 200.782 159.259C201.136 160.699 201.343 162.171 201.4 163.653C201.384 164.467 201.066 165.246 200.507 165.839C199.949 166.432 199.19 166.796 198.378 166.86C197.012 167.014 196.407 167.163 195.949 165.346C195.492 163.529 193.224 156.249 193.069 155.186C192.933 154.222 194.553 152.504 197.13 152.096C201.091 152.417 204.997 153.524 208.989 153.524C210.378 153.654 211.709 154.144 212.852 154.945" stroke="black" stroke-linecap="round" stroke-linejoin="round"/>
<path d="M215.441 172.589C214.959 172.614 214.477 172.614 213.995 172.589H215.441Z" fill="white"/>
<path d="M215.441 172.589C214.959 172.614 214.477 172.614 213.995 172.589" stroke="black" stroke-linecap="round" stroke-linejoin="round"/>
<path d="M218.673 171.989C217.624 172.321 216.539 172.529 215.441 172.607L218.673 171.989Z" fill="white"/>
<path d="M218.673 171.989C217.624 172.321 216.539 172.529 215.441 172.607" stroke="black" stroke-linecap="round" stroke-linejoin="round"/>
<path d="M224.13 170.024H229.587" stroke="black" stroke-linecap="round" stroke-linejoin="round"/>
<path d="M224.587 171.538H226.862" stroke="black" stroke-linecap="round" stroke-linejoin="round"/>
<path d="M204.268 160.927C204.268 160.927 207.283 160.927 209.261 159.129" stroke="black" stroke-linecap="round" stroke-linejoin="round"/>
<path d="M200.714 159.061C200.627 158.238 200.455 157.426 200.201 156.638" stroke="black" stroke-linecap="round" stroke-linejoin="round"/>
<path d="M195.906 164.549C195.906 164.549 195.331 162.954 196.03 162.379C196.728 161.805 198.582 160.977 198.903 161.613C199.225 162.25 199.923 165.185 199.731 165.76L199.54 166.335" stroke="black" stroke-width="0.5" stroke-linecap="round" stroke-linejoin="round"/>
<path d="M279.676 183.886H227.424V158.202H279.676" fill="url(#paint6_linear_22_850)"/>
<path d="M279.676 183.886H227.424V158.202H279.676" stroke="black" stroke-linecap="round" stroke-linejoin="round"/>
<path d="M231.256 182.168C231.904 182.168 232.43 181.642 232.43 180.994C232.43 180.345 231.904 179.819 231.256 179.819C230.607 179.819 230.081 180.345 230.081 180.994C230.081 181.642 230.607 182.168 231.256 182.168Z" fill="white" stroke="black" stroke-linecap="round" stroke-linejoin="round"/>
<path d="M148.215 133.741C148.663 133.561 149.069 133.292 149.411 132.951C149.753 132.611 150.023 132.205 150.205 131.758C150.489 131.059 150.421 130.132 151.033 129.051C152.393 126.628 151.181 120.566 151.651 116.165C152.121 111.765 147.251 105.857 147.251 105.857L148.196 88.4234H130.892C130.892 88.4234 131.646 106.617 130.132 110.554C128.618 114.491 125.435 118.897 125.584 120.868C125.732 122.84 127.568 139.05 127.568 139.05L148.184 133.741H148.215Z" fill="white" stroke="black" stroke-linecap="round" stroke-linejoin="round"/>
<path d="M78.486 138.24C78.8818 141.841 80.3363 145.242 82.6655 148.016C84.9947 150.789 88.0941 152.81 91.5716 153.821C95.0492 154.833 98.7487 154.791 102.202 153.701C105.656 152.61 108.709 150.52 110.974 147.694C113.24 144.868 114.616 141.434 114.93 137.826C115.244 134.218 114.481 130.598 112.737 127.423C110.993 124.249 108.347 121.663 105.134 119.992C101.92 118.322 98.2838 117.642 94.6838 118.038H94.6405C89.8216 118.58 85.4144 121.011 82.3858 124.799C79.3573 128.586 77.9548 133.42 78.486 138.24ZM111.24 134.6C111.562 137.489 111.02 140.408 109.683 142.989C108.346 145.57 106.273 147.696 103.728 149.099C101.182 150.502 98.2777 151.118 95.3818 150.87C92.4858 150.623 89.7284 149.522 87.4581 147.707C85.1878 145.892 83.5066 143.445 82.6272 140.675C81.7477 137.904 81.7095 134.935 82.5173 132.143C83.3251 129.351 84.9427 126.862 87.1655 124.989C89.3883 123.116 92.1165 121.945 95.0051 121.622C98.8787 121.192 102.765 122.317 105.809 124.751C108.853 127.184 110.807 130.727 111.24 134.6Z" fill="white" stroke="black" stroke-linecap="round" stroke-linejoin="round"/>
<path d="M77.4169 138.352C77.8163 141.949 79.2736 145.348 81.6043 148.118C83.9351 150.887 87.0347 152.904 90.5113 153.912C93.9879 154.921 97.6855 154.875 101.136 153.783C104.587 152.69 107.637 150.598 109.899 147.773C112.162 144.947 113.536 141.514 113.847 137.907C114.159 134.301 113.394 130.683 111.65 127.511C109.906 124.339 107.26 121.756 104.048 120.087C100.835 118.418 97.2003 117.74 93.6023 118.137C91.2119 118.401 88.8969 119.133 86.7896 120.292C84.6824 121.451 82.8241 123.013 81.321 124.891C79.8179 126.768 78.6994 128.923 78.0295 131.233C77.3597 133.542 77.1515 135.961 77.4169 138.352ZM110.22 134.724C110.541 137.612 109.998 140.529 108.661 143.109C107.323 145.688 105.251 147.812 102.706 149.214C100.161 150.615 97.2576 151.231 94.3629 150.982C91.4682 150.733 88.7123 149.632 86.4436 147.817C84.1749 146.002 82.4953 143.555 81.6173 140.785C80.7393 138.016 80.7022 135.048 81.5108 132.258C82.3194 129.467 83.9373 126.979 86.16 125.108C88.3826 123.237 91.1102 122.067 93.9978 121.746C95.9151 121.533 97.8557 121.7 99.7086 122.237C101.562 122.773 103.291 123.67 104.797 124.875C106.303 126.08 107.558 127.57 108.488 129.26C109.419 130.95 110.007 132.807 110.22 134.724Z" fill="white" stroke="black" stroke-linecap="round" stroke-linejoin="round"/>
<path d="M128.425 130.358L115.734 131.764C114.757 131.872 114.053 132.752 114.161 133.729L114.257 134.595C114.366 135.572 115.245 136.276 116.222 136.168L128.913 134.762C129.89 134.654 130.594 133.774 130.486 132.797L130.39 131.931C130.282 130.954 129.402 130.25 128.425 130.358Z" fill="url(#paint7_linear_22_850)" stroke="black" stroke-linecap="round" stroke-linejoin="round"/>
<path d="M124.749 134.007L124.546 132.153C124.457 131.35 124.691 130.545 125.197 129.914C125.702 129.284 126.437 128.88 127.24 128.791L152.331 126.016C152.841 125.957 153.358 125.999 153.852 126.14C154.346 126.281 154.807 126.519 155.209 126.838C155.611 127.158 155.946 127.554 156.194 128.004C156.443 128.454 156.6 128.948 156.657 129.459V129.582C156.716 130.093 156.674 130.609 156.533 131.103C156.392 131.597 156.155 132.059 155.835 132.461C155.515 132.863 155.119 133.197 154.669 133.446C154.219 133.694 153.725 133.851 153.215 133.908L128.124 136.683C127.322 136.774 126.517 136.543 125.884 136.041C125.252 135.54 124.844 134.809 124.749 134.007Z" fill="black" stroke="black" stroke-linecap="round" stroke-linejoin="round"/>
<path d="M145.656 131.313C145.656 131.313 145.823 135.7 146.577 136.318C147.331 136.936 149.989 136.825 150.285 135.633C151.089 132.598 150.619 126.128 150.075 125.88C149.531 125.633 146.367 125.102 146.033 126.443C145.784 128.054 145.658 129.682 145.656 131.313Z" fill="white" stroke="black" stroke-linecap="round" stroke-linejoin="round"/>
<path d="M139.532 132.573C139.532 132.573 139.334 137.684 140.255 138.481C141.176 139.279 144.618 139.439 145.137 138.086C146.46 134.65 145.941 126.919 145.261 126.573C144.581 126.227 141.052 125.454 140.484 126.968C139.915 128.482 139.532 132.573 139.532 132.573Z" fill="white" stroke="black" stroke-linecap="round" stroke-linejoin="round"/>
<path d="M132.61 133.321C132.61 133.321 132.4 138.784 133.383 139.637C134.366 140.49 138.049 140.657 138.605 139.211C140.014 135.54 140.014 127.469 139.285 127.098C138.556 126.727 134.236 125.707 133.63 127.327C133.024 128.946 132.61 133.321 132.61 133.321Z" fill="white" stroke="black" stroke-linecap="round" stroke-linejoin="round"/>
<path d="M126.134 136.467C126.134 136.467 125.924 141.93 126.912 142.783C127.901 143.636 131.683 143.839 132.128 142.356C132.573 140.873 133.537 130.614 132.808 130.237C132.079 129.86 127.765 128.853 127.154 130.472C126.542 132.091 126.134 136.467 126.134 136.467Z" fill="white" stroke="black" stroke-linecap="round" stroke-linejoin="round"/>
<path d="M144.686 114.379C144.938 116.814 144.354 119.261 143.03 121.32C140.002 125.72 133.025 125.565 133.025 125.565L132.722 126.628C132.392 127.5 131.931 128.317 131.356 129.051C132.798 128.697 134.272 128.49 135.756 128.433C136.568 128.456 137.342 128.779 137.929 129.34C138.517 129.9 138.877 130.658 138.939 131.467C139.093 132.833 139.242 133.439 137.425 133.89C135.608 134.341 128.328 136.621 127.265 136.776C126.301 136.912 124.583 135.293 124.175 132.716C124.502 128.754 125.609 124.842 125.609 120.856C125.738 119.465 126.228 118.131 127.03 116.987" fill="white"/>
<path d="M144.686 114.379C144.938 116.814 144.354 119.261 143.03 121.32C140.002 125.72 133.025 125.565 133.025 125.565L132.722 126.628C132.392 127.5 131.931 128.317 131.356 129.051C132.798 128.697 134.272 128.49 135.756 128.433C136.568 128.456 137.342 128.779 137.929 129.34C138.517 129.9 138.877 130.658 138.939 131.467C139.093 132.833 139.242 133.439 137.425 133.89C135.608 134.341 128.328 136.621 127.265 136.776C126.301 136.912 124.583 135.293 124.175 132.716C124.502 128.754 125.609 124.842 125.609 120.856C125.738 119.465 126.228 118.131 127.03 116.987" stroke="black" stroke-linecap="round" stroke-linejoin="round"/>
<path d="M144.093 111.166C144.276 111.744 144.416 112.335 144.513 112.933L144.093 111.166Z" fill="white"/>
<path d="M144.093 111.166C144.276 111.744 144.416 112.335 144.513 112.933" stroke="black" stroke-linecap="round" stroke-linejoin="round"/>
<path d="M142.121 105.703V100.246" stroke="black" stroke-linecap="round" stroke-linejoin="round"/>
<path d="M143.636 105.252V102.977" stroke="black" stroke-linecap="round" stroke-linejoin="round"/>
<path d="M133.025 125.565C133.025 125.565 133.025 122.549 131.226 120.572" stroke="black" stroke-linecap="round" stroke-linejoin="round"/>
<path d="M131.164 129.125C130.341 129.21 129.53 129.38 128.742 129.632" stroke="black" stroke-linecap="round" stroke-linejoin="round"/>
<path d="M136.652 133.908C136.652 133.908 135.058 134.483 134.483 133.778C133.908 133.074 133.08 131.226 133.717 130.911C134.353 130.596 137.289 129.891 137.863 130.083L138.438 130.268" stroke="black" stroke-width="0.5" stroke-linecap="round" stroke-linejoin="round"/>
<path d="M155.989 50.1569V102.409H130.299V50.1569" fill="url(#paint8_linear_22_850)"/>
<path d="M155.989 50.1569V102.409H130.299V50.1569" stroke="black" stroke-linecap="round" stroke-linejoin="round"/>
<path d="M153.091 99.7514C153.739 99.7514 154.265 99.2257 154.265 98.5772C154.265 97.9287 153.739 97.403 153.091 97.403C152.442 97.403 151.917 97.9287 151.917 98.5772C151.917 99.2257 152.442 99.7514 153.091 99.7514Z" fill="white" stroke="black" stroke-linecap="round" stroke-linejoin="round"/>
<defs>
<linearGradient id="paint0_linear_22_850" x1="158.177" y1="246.199" x2="158.177" y2="256.087" gradientUnits="userSpaceOnUse">
<stop stop-color="#1DE15C"/>
<stop offset="1" stop-color="#EEFF20"/>
</linearGradient>
<linearGradient id="paint1_linear_22_850" x1="54.6799" y1="227.758" x2="54.6799" y2="250.889" gradientUnits="userSpaceOnUse">
<stop stop-color="#1DE15C"/>
<stop offset="1" stop-color="#EEFF20"/>
</linearGradient>
<linearGradient id="paint2_linear_22_850" x1="54.6799" y1="224.112" x2="54.6799" y2="230.304" gradientUnits="userSpaceOnUse">
<stop stop-color="#1DE15C"/>
<stop offset="1" stop-color="#EEFF20"/>
</linearGradient>
<linearGradient id="paint3_linear_22_850" x1="152.028" y1="222.758" x2="152.028" y2="244.11" gradientUnits="userSpaceOnUse">
<stop stop-color="#1DE15C"/>
<stop offset="1" stop-color="#EEFF20"/>
</linearGradient>
<linearGradient id="paint4_linear_22_850" x1="151.926" y1="130.367" x2="151.926" y2="197.581" gradientUnits="userSpaceOnUse">
<stop stop-color="#1DE15C"/>
<stop offset="1" stop-color="#EEFF20"/>
</linearGradient>
<linearGradient id="paint5_linear_22_850" x1="195.681" y1="142.102" x2="197.478" y2="158.33" gradientUnits="userSpaceOnUse">
<stop stop-color="#1DE15C"/>
<stop offset="1" stop-color="#EEFF20"/>
</linearGradient>
<linearGradient id="paint6_linear_22_850" x1="253.55" y1="158.202" x2="253.55" y2="183.886" gradientUnits="userSpaceOnUse">
<stop stop-color="#1DE15C"/>
<stop offset="1" stop-color="#EEFF20"/>
</linearGradient>
<linearGradient id="paint7_linear_22_850" x1="122.08" y1="131.061" x2="122.567" y2="135.465" gradientUnits="userSpaceOnUse">
<stop stop-color="#1DE15C"/>
<stop offset="1" stop-color="#EEFF20"/>
</linearGradient>
<linearGradient id="paint8_linear_22_850" x1="143.144" y1="50.1569" x2="143.144" y2="102.409" gradientUnits="userSpaceOnUse">
<stop stop-color="#1DE15C"/>
<stop offset="1" stop-color="#EEFF20"/>
</linearGradient>
</defs>
</svg>
