<svg width="308" height="308" viewBox="0 0 308 308" fill="none" xmlns="http://www.w3.org/2000/svg">
<path d="M109.808 274.791C125.495 274.791 138.212 272.249 138.212 269.112C138.212 265.975 125.495 263.432 109.808 263.432C94.1212 263.432 81.4044 265.975 81.4044 269.112C81.4044 272.249 94.1212 274.791 109.808 274.791Z" fill="url(#paint0_linear_22_949)"/>
<path opacity="0.5" d="M109.808 274.791C125.495 274.791 138.212 272.249 138.212 269.112C138.212 265.975 125.495 263.432 109.808 263.432C94.1212 263.432 81.4044 265.975 81.4044 269.112C81.4044 272.249 94.1212 274.791 109.808 274.791Z" fill="white"/>
<path d="M218.837 214.5C252.48 180.857 252.48 126.311 218.837 92.6686C185.195 59.0259 130.649 59.0258 97.0064 92.6686C63.3637 126.311 63.3637 180.857 97.0064 214.5C130.649 248.142 185.195 248.142 218.837 214.5Z" fill="url(#paint1_linear_22_949)" stroke="black" stroke-miterlimit="10" stroke-linecap="round"/>
<path d="M157.924 232.244C201.368 232.244 236.587 197.026 236.587 153.581C236.587 110.137 201.368 74.9179 157.924 74.9179C114.479 74.9179 79.2607 110.137 79.2607 153.581C79.2607 197.026 114.479 232.244 157.924 232.244Z" fill="black" stroke="black" stroke-miterlimit="10" stroke-linecap="round"/>
<path d="M157.924 226.368C198.123 226.368 230.71 193.78 230.71 153.581C230.71 113.382 198.123 80.7946 157.924 80.7946C117.725 80.7946 85.1374 113.382 85.1374 153.581C85.1374 193.78 117.725 226.368 157.924 226.368Z" fill="white" stroke="black" stroke-miterlimit="10" stroke-linecap="round"/>
<path d="M157.924 87.7738C144.907 87.7738 132.182 91.6339 121.359 98.8658C110.536 106.098 102.101 116.377 97.1196 128.403C92.1385 140.429 90.8356 153.662 93.3755 166.429C95.9154 179.196 102.184 190.923 111.389 200.127C120.594 209.331 132.321 215.598 145.088 218.137C157.855 220.676 171.088 219.371 183.114 214.389C195.14 209.407 205.418 200.971 212.649 190.147C219.88 179.323 223.739 166.598 223.737 153.581C223.737 144.939 222.035 136.381 218.727 128.396C215.42 120.412 210.572 113.157 204.461 107.046C198.349 100.935 191.094 96.0881 183.109 92.7813C175.124 89.4746 166.566 87.773 157.924 87.7738ZM157.924 214.054C145.959 214.054 134.262 210.506 124.313 203.858C114.365 197.211 106.611 187.762 102.032 176.708C97.4527 165.653 96.2547 153.489 98.589 141.754C100.923 130.019 106.685 119.239 115.146 110.778C123.607 102.318 134.386 96.5559 146.121 94.2216C157.857 91.8872 170.021 93.0853 181.075 97.6642C192.13 102.243 201.578 109.997 208.226 119.946C214.873 129.895 218.421 141.591 218.421 153.556C218.425 161.503 216.862 169.373 213.823 176.715C210.784 184.058 206.329 190.73 200.711 196.351C195.093 201.971 188.422 206.429 181.081 209.471C173.739 212.513 165.871 214.078 157.924 214.078V214.054Z" fill="url(#paint2_linear_22_949)" stroke="black" stroke-miterlimit="10" stroke-linecap="round"/>
<path d="M157.924 117.354C150.757 117.354 143.752 119.479 137.793 123.461C131.835 127.443 127.19 133.102 124.448 139.723C121.706 146.344 120.989 153.63 122.387 160.658C123.786 167.687 127.237 174.143 132.305 179.21C137.373 184.277 143.83 187.728 150.859 189.125C157.888 190.522 165.173 189.804 171.794 187.061C178.415 184.317 184.073 179.672 188.054 173.713C192.034 167.754 194.158 160.748 194.157 153.581C194.157 148.823 193.22 144.112 191.399 139.716C189.578 135.321 186.909 131.327 183.544 127.963C180.18 124.599 176.185 121.93 171.789 120.11C167.393 118.29 162.682 117.353 157.924 117.354ZM157.924 186.882C151.338 186.882 144.899 184.929 139.423 181.27C133.947 177.611 129.678 172.41 127.158 166.325C124.637 160.24 123.978 153.544 125.263 147.084C126.548 140.625 129.719 134.691 134.377 130.034C139.034 125.377 144.967 122.205 151.427 120.92C157.887 119.635 164.583 120.295 170.668 122.815C176.753 125.336 181.953 129.604 185.613 135.08C189.272 140.556 191.225 146.995 191.225 153.581C191.225 162.413 187.716 170.883 181.471 177.128C175.226 183.374 166.756 186.882 157.924 186.882Z" fill="url(#paint3_linear_22_949)" stroke="black" stroke-miterlimit="10" stroke-linecap="round"/>
<path d="M157.924 132.637C153.782 132.637 149.732 133.865 146.288 136.167C142.844 138.468 140.159 141.739 138.574 145.566C136.989 149.393 136.574 153.604 137.382 157.667C138.19 161.73 140.185 165.462 143.114 168.391C146.043 171.32 149.775 173.315 153.838 174.123C157.901 174.931 162.112 174.516 165.939 172.931C169.766 171.346 173.037 168.661 175.338 165.217C177.64 161.773 178.868 157.723 178.868 153.581C178.868 150.831 178.326 148.107 177.274 145.566C176.221 143.025 174.678 140.716 172.734 138.771C170.789 136.827 168.48 135.284 165.939 134.231C163.398 133.179 160.674 132.637 157.924 132.637ZM159.532 135.92C163.222 136.25 166.716 137.733 169.517 140.158L159.544 150.144L159.532 135.92ZM156.322 150.144L146.337 140.158C149.138 137.732 152.631 136.249 156.322 135.92V150.144ZM154.055 152.411H140.226C140.461 148.773 141.817 145.298 144.107 142.462L154.055 152.411ZM154.055 155.614L144.501 165.174C142.17 162.484 140.708 159.151 140.306 155.614H154.055ZM156.322 157.887V171.248C152.839 170.939 149.526 169.601 146.805 167.404L156.322 157.887ZM159.532 157.887L169.049 167.404C166.331 169.598 163.023 170.936 159.544 171.248L159.532 157.887ZM161.799 155.614H175.56C175.156 159.15 173.694 162.482 171.365 165.174L161.799 155.614ZM161.799 152.411L171.741 142.462C174.031 145.298 175.386 148.773 175.622 152.411H161.799Z" fill="url(#paint4_linear_22_949)" stroke="black" stroke-miterlimit="10" stroke-linecap="round"/>
<path d="M157.924 165.445C164.476 165.445 169.788 160.134 169.788 153.581C169.788 147.029 164.476 141.717 157.924 141.717C151.372 141.717 146.06 147.029 146.06 153.581C146.06 160.134 151.372 165.445 157.924 165.445Z" fill="white" stroke="black" stroke-miterlimit="10" stroke-linecap="round"/>
<g style="mix-blend-mode:multiply">
<path d="M243.646 162.144C156.174 134.947 96.1699 176.78 79.9137 190.159C87.9234 207.231 101.313 221.203 118.027 229.933C134.742 238.663 153.859 241.668 172.446 238.488C191.033 235.308 208.064 226.117 220.925 212.327C233.786 198.536 241.768 180.907 243.646 162.144Z" fill="url(#paint5_linear_22_949)"/>
</g>
<path d="M236.55 81.8664H234.979C232.462 81.8664 230.421 83.9073 230.421 86.4248V95.48C230.421 97.9975 232.462 100.038 234.979 100.038H236.55C239.068 100.038 241.109 97.9975 241.109 95.48V86.4248C241.109 83.9073 239.068 81.8664 236.55 81.8664Z" fill="black" stroke="black" stroke-miterlimit="10" stroke-linecap="round"/>
<path d="M236.55 209.594H234.979C232.462 209.594 230.421 211.635 230.421 214.152V223.208C230.421 225.725 232.462 227.766 234.979 227.766H236.55C239.068 227.766 241.109 225.725 241.109 223.208V214.152C241.109 211.635 239.068 209.594 236.55 209.594Z" fill="black" stroke="black" stroke-miterlimit="10" stroke-linecap="round"/>
<path d="M158.712 81.8664H157.142C154.624 81.8664 152.583 83.9073 152.583 86.4248V95.48C152.583 97.9975 154.624 100.038 157.142 100.038H158.712C161.23 100.038 163.271 97.9975 163.271 95.48V86.4248C163.271 83.9073 161.23 81.8664 158.712 81.8664Z" fill="black" stroke="black" stroke-miterlimit="10" stroke-linecap="round"/>
<path d="M158.712 209.594H157.142C154.624 209.594 152.583 211.635 152.583 214.152V223.208C152.583 225.725 154.624 227.766 157.142 227.766H158.712C161.23 227.766 163.271 225.725 163.271 223.208V214.152C163.271 211.635 161.23 209.594 158.712 209.594Z" fill="black" stroke="black" stroke-miterlimit="10" stroke-linecap="round"/>
<path d="M157.924 63.1092C158.883 63.1092 159.661 62.3315 159.661 61.3721C159.661 60.4127 158.883 59.635 157.924 59.635C156.965 59.635 156.187 60.4127 156.187 61.3721C156.187 62.3315 156.965 63.1092 157.924 63.1092Z" fill="white" stroke="black" stroke-miterlimit="10" stroke-linecap="round"/>
<path d="M128.023 66.337C127.905 66.0146 127.695 65.7343 127.418 65.5315C127.141 65.3287 126.81 65.2126 126.467 65.1978C126.124 65.183 125.784 65.2701 125.491 65.4482C125.197 65.6263 124.963 65.8874 124.818 66.1985C124.672 66.5095 124.623 66.8567 124.675 67.196C124.727 67.5354 124.878 67.8518 125.109 68.1052C125.341 68.3586 125.643 68.5377 125.976 68.6199C126.309 68.7021 126.659 68.6837 126.982 68.567C127.197 68.4892 127.395 68.3698 127.564 68.2156C127.732 68.0613 127.869 67.8753 127.966 67.6681C128.062 67.461 128.117 67.2367 128.127 67.0083C128.137 66.7799 128.102 66.5518 128.023 66.337Z" fill="white" stroke="black" stroke-miterlimit="10" stroke-linecap="round"/>
<path d="M99.983 81.8294C99.7604 81.569 99.4658 81.3802 99.1361 81.2868C98.8065 81.1934 98.4567 81.1995 98.1305 81.3044C97.8044 81.4093 97.5166 81.6083 97.3032 81.8764C97.0899 82.1445 96.9606 82.4696 96.9316 82.811C96.9026 83.1523 96.9752 83.4946 97.1402 83.7949C97.3052 84.0951 97.5553 84.3398 97.8591 84.4983C98.1628 84.6567 98.5066 84.7218 98.8473 84.6854C99.1879 84.6489 99.5102 84.5126 99.7735 84.2934C99.9511 84.1468 100.098 83.9662 100.204 83.7622C100.311 83.5582 100.376 83.3349 100.396 83.1054C100.415 82.876 100.389 82.6449 100.318 82.4258C100.247 82.2067 100.133 82.004 99.983 81.8294Z" fill="white" stroke="black" stroke-miterlimit="10" stroke-linecap="round"/>
<path d="M78.9404 105.952C78.6443 105.778 78.3032 105.695 77.9601 105.715C77.6171 105.734 77.2876 105.855 77.0132 106.062C76.7389 106.269 76.5321 106.552 76.4189 106.877C76.3058 107.201 76.2914 107.552 76.3775 107.885C76.4637 108.217 76.6466 108.517 76.903 108.745C77.1595 108.974 77.478 109.122 77.8182 109.169C78.1585 109.217 78.5053 109.163 78.8147 109.013C79.1241 108.864 79.3822 108.626 79.5564 108.33C79.7883 107.932 79.8537 107.459 79.7383 107.014C79.6229 106.569 79.3361 106.187 78.9404 105.952Z" fill="white" stroke="black" stroke-miterlimit="10" stroke-linecap="round"/>
<path d="M67.415 135.859C67.0768 135.8 66.7285 135.842 66.4143 135.98C66.1001 136.119 65.834 136.348 65.6496 136.637C65.4653 136.927 65.3709 137.265 65.3785 137.608C65.3861 137.952 65.4953 138.285 65.6923 138.566C65.8893 138.848 66.1653 139.064 66.4853 139.189C66.8054 139.313 67.1552 139.34 67.4905 139.266C67.8258 139.192 68.1316 139.02 68.3692 138.772C68.6069 138.524 68.7657 138.211 68.8257 137.873C68.8656 137.648 68.8607 137.418 68.8114 137.195C68.762 136.972 68.6692 136.76 68.5381 136.573C68.4071 136.386 68.2405 136.227 68.0478 136.104C67.855 135.982 67.64 135.898 67.415 135.859Z" fill="white" stroke="black" stroke-miterlimit="10" stroke-linecap="round"/>
<path d="M66.8114 167.885C66.4732 167.945 66.1604 168.103 65.9125 168.341C65.6646 168.579 65.4927 168.885 65.4185 169.22C65.3443 169.555 65.3712 169.905 65.4957 170.225C65.6203 170.545 65.8369 170.821 66.1182 171.018C66.3995 171.215 66.7328 171.324 67.0762 171.332C67.4195 171.339 67.7574 171.245 68.0471 171.061C68.3369 170.876 68.5655 170.61 68.7041 170.296C68.8426 169.982 68.885 169.634 68.8257 169.295C68.7863 169.07 68.7029 168.855 68.5802 168.663C68.4576 168.47 68.2982 168.303 68.1111 168.172C67.924 168.041 67.7129 167.948 67.4899 167.899C67.2668 167.85 67.0363 167.845 66.8114 167.885Z" fill="white" stroke="black" stroke-miterlimit="10" stroke-linecap="round"/>
<path d="M77.1971 198.186C76.901 198.36 76.6631 198.618 76.5137 198.927C76.3643 199.237 76.3099 199.584 76.3576 199.924C76.4052 200.264 76.5527 200.583 76.7814 200.839C77.0101 201.096 77.3097 201.278 77.6423 201.365C77.9749 201.451 78.3256 201.436 78.65 201.323C78.9744 201.21 79.258 201.003 79.4649 200.729C79.6718 200.455 79.7926 200.125 79.8122 199.782C79.8318 199.439 79.7492 199.098 79.5749 198.802C79.4598 198.605 79.3068 198.432 79.1248 198.294C78.9427 198.157 78.7352 198.056 78.5142 197.999C78.2932 197.942 78.063 197.929 77.837 197.961C77.611 197.993 77.3935 198.069 77.1971 198.186Z" fill="white" stroke="black" stroke-miterlimit="10" stroke-linecap="round"/>
<path d="M97.328 223.103C97.1096 223.367 96.9741 223.689 96.9386 224.03C96.903 224.371 96.969 224.714 97.1282 225.018C97.2875 225.321 97.5328 225.571 97.8334 225.735C98.134 225.899 98.4765 225.971 98.8177 225.941C99.159 225.911 99.4838 225.781 99.7513 225.567C100.019 225.353 100.217 225.065 100.321 224.738C100.425 224.412 100.431 224.062 100.337 223.733C100.242 223.403 100.053 223.109 99.792 222.887C99.6167 222.738 99.4136 222.625 99.1943 222.555C98.9751 222.485 98.7441 222.46 98.5149 222.48C98.2856 222.5 98.0627 222.565 97.8589 222.672C97.6552 222.779 97.4747 222.926 97.328 223.103Z" fill="white" stroke="black" stroke-miterlimit="10" stroke-linecap="round"/>
<path d="M124.752 239.624C124.636 239.947 124.617 240.297 124.699 240.63C124.782 240.964 124.961 241.265 125.214 241.497C125.468 241.728 125.784 241.88 126.123 241.932C126.463 241.984 126.81 241.934 127.121 241.789C127.432 241.643 127.693 241.409 127.871 241.116C128.049 240.822 128.136 240.483 128.121 240.14C128.107 239.797 127.991 239.466 127.788 239.189C127.585 238.912 127.305 238.701 126.982 238.583C126.768 238.504 126.539 238.468 126.311 238.477C126.082 238.487 125.857 238.541 125.65 238.638C125.443 238.735 125.257 238.872 125.102 239.041C124.948 239.21 124.829 239.409 124.752 239.624Z" fill="white" stroke="black" stroke-miterlimit="10" stroke-linecap="round"/>
<path d="M156.187 245.784C156.186 246.129 156.287 246.467 156.478 246.755C156.669 247.042 156.941 247.267 157.26 247.4C157.579 247.532 157.93 247.567 158.269 247.5C158.607 247.433 158.919 247.267 159.163 247.023C159.407 246.779 159.573 246.467 159.64 246.129C159.707 245.79 159.672 245.439 159.539 245.12C159.407 244.801 159.182 244.529 158.895 244.338C158.607 244.147 158.269 244.046 157.924 244.047C157.463 244.047 157.021 244.23 156.696 244.556C156.37 244.881 156.187 245.323 156.187 245.784Z" fill="white" stroke="black" stroke-miterlimit="10" stroke-linecap="round"/>
<path d="M187.831 240.856C187.949 241.178 188.159 241.459 188.436 241.662C188.713 241.864 189.044 241.98 189.387 241.995C189.73 242.01 190.07 241.923 190.363 241.745C190.657 241.567 190.891 241.306 191.036 240.995C191.182 240.684 191.231 240.336 191.179 239.997C191.128 239.658 190.976 239.341 190.745 239.088C190.513 238.834 190.211 238.655 189.878 238.573C189.545 238.491 189.195 238.509 188.872 238.626C188.657 238.704 188.459 238.823 188.29 238.977C188.122 239.132 187.985 239.318 187.888 239.525C187.792 239.732 187.737 239.956 187.727 240.185C187.717 240.413 187.752 240.641 187.831 240.856Z" fill="white" stroke="black" stroke-miterlimit="10" stroke-linecap="round"/>
<path d="M215.865 225.339C216.087 225.602 216.382 225.793 216.713 225.889C217.044 225.984 217.395 225.98 217.724 225.876C218.052 225.772 218.342 225.573 218.557 225.304C218.772 225.035 218.903 224.709 218.933 224.366C218.963 224.023 218.891 223.679 218.726 223.377C218.56 223.075 218.309 222.829 218.004 222.669C217.699 222.51 217.353 222.444 217.011 222.481C216.669 222.517 216.345 222.655 216.08 222.875C215.903 223.022 215.757 223.202 215.65 223.406C215.543 223.61 215.478 223.833 215.457 224.062C215.437 224.291 215.463 224.522 215.533 224.741C215.603 224.961 215.716 225.164 215.865 225.339Z" fill="white" stroke="black" stroke-miterlimit="10" stroke-linecap="round"/>
<path d="M236.914 201.198C237.21 201.372 237.551 201.455 237.894 201.435C238.237 201.416 238.566 201.295 238.841 201.088C239.115 200.881 239.322 200.597 239.435 200.273C239.548 199.949 239.563 199.598 239.477 199.265C239.39 198.933 239.207 198.633 238.951 198.404C238.695 198.176 238.376 198.028 238.036 197.981C237.696 197.933 237.349 197.987 237.039 198.137C236.73 198.286 236.472 198.524 236.298 198.82C236.066 199.218 236 199.691 236.116 200.136C236.231 200.581 236.518 200.963 236.914 201.198Z" fill="white" stroke="black" stroke-miterlimit="10" stroke-linecap="round"/>
<path d="M248.433 171.31C248.771 171.369 249.119 171.327 249.434 171.188C249.748 171.049 250.014 170.821 250.198 170.531C250.383 170.241 250.477 169.903 250.469 169.56C250.462 169.217 250.353 168.883 250.156 168.602C249.959 168.321 249.683 168.104 249.363 167.98C249.042 167.855 248.693 167.828 248.357 167.902C248.022 167.977 247.716 168.149 247.479 168.396C247.241 168.644 247.082 168.957 247.022 169.295C246.982 169.52 246.987 169.751 247.036 169.974C247.086 170.197 247.179 170.408 247.31 170.595C247.441 170.782 247.607 170.942 247.8 171.064C247.993 171.187 248.208 171.27 248.433 171.31Z" fill="white" stroke="black" stroke-miterlimit="10" stroke-linecap="round"/>
<path d="M249.036 139.284C249.375 139.224 249.687 139.065 249.935 138.827C250.183 138.59 250.355 138.284 250.429 137.949C250.503 137.613 250.477 137.263 250.352 136.943C250.228 136.623 250.011 136.347 249.73 136.15C249.448 135.953 249.115 135.844 248.772 135.837C248.428 135.829 248.09 135.923 247.801 136.108C247.511 136.292 247.282 136.558 247.144 136.872C247.005 137.187 246.963 137.535 247.022 137.873C247.062 138.098 247.145 138.313 247.268 138.506C247.39 138.699 247.55 138.865 247.737 138.996C247.924 139.127 248.135 139.22 248.358 139.269C248.581 139.319 248.812 139.324 249.036 139.284Z" fill="white" stroke="black" stroke-miterlimit="10" stroke-linecap="round"/>
<path d="M238.651 108.983C238.948 108.809 239.187 108.551 239.337 108.242C239.487 107.933 239.542 107.586 239.495 107.245C239.448 106.904 239.301 106.585 239.073 106.328C238.844 106.071 238.544 105.888 238.211 105.801C237.878 105.715 237.527 105.729 237.202 105.843C236.878 105.956 236.594 106.163 236.387 106.438C236.18 106.712 236.059 107.042 236.04 107.386C236.021 107.729 236.104 108.071 236.279 108.367C236.513 108.762 236.893 109.049 237.338 109.164C237.782 109.28 238.254 109.214 238.651 108.983Z" fill="white" stroke="black" stroke-miterlimit="10" stroke-linecap="round"/>
<path d="M218.532 84.0655C218.753 83.8016 218.891 83.4781 218.929 83.1358C218.967 82.7936 218.902 82.4478 218.743 82.1422C218.584 81.8367 218.339 81.5849 218.037 81.4188C217.736 81.2527 217.392 81.1796 217.048 81.2087C216.705 81.2379 216.379 81.368 216.109 81.5827C215.84 81.7973 215.64 82.0869 215.536 82.4149C215.431 82.7429 215.425 83.0946 215.52 83.4256C215.615 83.7566 215.806 84.0522 216.068 84.275C216.243 84.4237 216.446 84.5362 216.665 84.6062C216.884 84.6762 217.115 84.7022 217.344 84.6828C217.573 84.6633 217.796 84.5987 218 84.4928C218.204 84.3869 218.385 84.2417 218.532 84.0655Z" fill="white" stroke="black" stroke-miterlimit="10" stroke-linecap="round"/>
<path d="M191.096 67.5259C191.213 67.2029 191.232 66.8523 191.149 66.5186C191.067 66.1849 190.888 65.8831 190.635 65.6512C190.381 65.4194 190.064 65.268 189.724 65.2161C189.385 65.1643 189.037 65.2145 188.726 65.3602C188.415 65.5059 188.154 65.7406 187.976 66.0347C187.798 66.3288 187.712 66.669 187.727 67.0122C187.743 67.3555 187.86 67.6865 188.064 67.9632C188.267 68.24 188.549 68.4501 188.872 68.567C189.086 68.6453 189.314 68.6806 189.542 68.6706C189.77 68.6607 189.994 68.6057 190.2 68.509C190.407 68.4122 190.592 68.2756 190.746 68.1069C190.9 67.9381 191.018 67.7407 191.096 67.5259Z" fill="white" stroke="black" stroke-miterlimit="10" stroke-linecap="round"/>
<path d="M242.18 108.053V93.0899H146.971V116.806H174.691C175.919 116.806 177.135 117.048 178.27 117.518C179.404 117.988 180.435 118.676 181.304 119.545C182.172 120.413 182.861 121.444 183.331 122.578C183.8 123.713 184.042 124.929 184.042 126.157V181.418C184.041 183.897 183.055 186.274 181.301 188.026C179.548 189.779 177.17 190.763 174.691 190.763H146.971V216.019H242.18V201.044H218.28C216.232 201.042 214.269 200.228 212.821 198.779C211.374 197.331 210.561 195.367 210.561 193.319V115.808C210.561 113.76 211.374 111.797 212.821 110.348C214.269 108.9 216.232 108.085 218.28 108.083L242.18 108.053Z" fill="white" stroke="black" stroke-miterlimit="10" stroke-linecap="round"/>
<path d="M188.699 156.883V181.418C188.694 185.137 187.215 188.701 184.586 191.331C181.956 193.96 178.391 195.44 174.673 195.444H151.647V211.325H237.505V205.744H218.28C214.992 205.741 211.84 204.433 209.515 202.109C207.19 199.784 205.883 196.632 205.88 193.344V158.059C200.184 157.298 194.445 156.905 188.699 156.883Z" fill="url(#paint6_linear_22_949)"/>
<path d="M151.647 106.858C163.111 103.654 178.911 100.285 200.021 97.7715H151.647V106.858Z" fill="url(#paint7_linear_22_949)"/>
<path d="M208.005 108.841C198.506 110.689 189.771 112.654 182.422 114.471C184.353 115.753 185.937 117.492 187.032 119.534C188.128 121.576 188.7 123.858 188.699 126.175V132.859C194.638 130.093 200.403 127.623 205.88 125.43V115.808C205.873 113.325 206.613 110.897 208.005 108.841Z" fill="url(#paint8_linear_22_949)"/>
<path d="M157.394 44.8571V41.0379" stroke="black" stroke-miterlimit="10" stroke-linecap="round"/>
<path d="M157.394 56.481V47.124" stroke="black" stroke-miterlimit="10" stroke-linecap="round"/>
<path d="M157.394 260.309V250.287" stroke="black" stroke-miterlimit="10" stroke-linecap="round"/>
<path d="M246.948 154.049H262.317" stroke="black" stroke-miterlimit="10" stroke-linecap="round"/>
<path d="M49.0582 154.049H68.6902" stroke="black" stroke-miterlimit="10" stroke-linecap="round"/>
<path d="M44.4567 154.049H46.2123" stroke="black" stroke-miterlimit="10" stroke-linecap="round"/>
<path d="M265.662 154.049H269.247" stroke="black" stroke-miterlimit="10" stroke-linecap="round"/>
<defs>
<linearGradient id="paint0_linear_22_949" x1="109.808" y1="263.432" x2="109.808" y2="274.791" gradientUnits="userSpaceOnUse">
<stop stop-color="#1DE15C"/>
<stop offset="1" stop-color="#EEFF20"/>
</linearGradient>
<linearGradient id="paint1_linear_22_949" x1="97.0064" y1="92.6686" x2="218.838" y2="214.5" gradientUnits="userSpaceOnUse">
<stop stop-color="#1DE15C"/>
<stop offset="1" stop-color="#EEFF20"/>
</linearGradient>
<linearGradient id="paint2_linear_22_949" x1="157.924" y1="87.7738" x2="157.924" y2="219.401" gradientUnits="userSpaceOnUse">
<stop stop-color="#1DE15C"/>
<stop offset="1" stop-color="#EEFF20"/>
</linearGradient>
<linearGradient id="paint3_linear_22_949" x1="157.924" y1="117.354" x2="157.924" y2="189.82" gradientUnits="userSpaceOnUse">
<stop stop-color="#1DE15C"/>
<stop offset="1" stop-color="#EEFF20"/>
</linearGradient>
<linearGradient id="paint4_linear_22_949" x1="157.924" y1="132.637" x2="157.924" y2="174.525" gradientUnits="userSpaceOnUse">
<stop stop-color="#1DE15C"/>
<stop offset="1" stop-color="#EEFF20"/>
</linearGradient>
<linearGradient id="paint5_linear_22_949" x1="161.78" y1="153.141" x2="161.78" y2="239.722" gradientUnits="userSpaceOnUse">
<stop stop-color="#1DE15C"/>
<stop offset="1" stop-color="#EEFF20"/>
</linearGradient>
<linearGradient id="paint6_linear_22_949" x1="194.576" y1="156.883" x2="194.576" y2="211.325" gradientUnits="userSpaceOnUse">
<stop stop-color="#1DE15C"/>
<stop offset="1" stop-color="#EEFF20"/>
</linearGradient>
<linearGradient id="paint7_linear_22_949" x1="175.834" y1="97.7715" x2="175.834" y2="106.858" gradientUnits="userSpaceOnUse">
<stop stop-color="#1DE15C"/>
<stop offset="1" stop-color="#EEFF20"/>
</linearGradient>
<linearGradient id="paint8_linear_22_949" x1="195.213" y1="108.841" x2="195.213" y2="132.859" gradientUnits="userSpaceOnUse">
<stop stop-color="#1DE15C"/>
<stop offset="1" stop-color="#EEFF20"/>
</linearGradient>
</defs>
</svg>
