<svg width="31" height="31" viewBox="0 0 31 31" fill="none" xmlns="http://www.w3.org/2000/svg">
<path d="M29.121 18.7103C30.8963 11.1884 26.2379 3.65162 18.7161 1.8763C11.1942 0.100992 3.6574 4.75946 1.88209 12.2813C0.106778 19.8031 4.76526 27.3399 12.2871 29.1152C19.8089 30.8906 27.3457 26.2321 29.121 18.7103Z" stroke="black" stroke-width="1.5" stroke-linecap="round" stroke-linejoin="round"/>
<path d="M7.95758 13.128C7.95758 12.8833 8.03017 12.6441 8.16616 12.4407C8.30215 12.2373 8.49542 12.0788 8.72153 11.9853C8.94763 11.8917 9.1964 11.8674 9.43634 11.9153C9.67629 11.9632 9.89663 12.0812 10.0695 12.2544C10.2423 12.4276 10.3599 12.6481 10.4074 12.8882C10.4548 13.1282 10.43 13.3769 10.336 13.6029C10.2421 13.8288 10.0832 14.0218 9.87951 14.1574C9.67583 14.293 9.43651 14.3651 9.19183 14.3646C9.02955 14.3646 8.86885 14.3326 8.71895 14.2704C8.56905 14.2083 8.43289 14.1171 8.31824 14.0023C8.2036 13.8874 8.11274 13.7511 8.05085 13.601C7.98896 13.451 7.95727 13.2903 7.95758 13.128Z" fill="black"/>
<path d="M20.5692 13.128C20.5692 12.8834 20.6417 12.6443 20.7776 12.4409C20.9135 12.2376 21.1066 12.0791 21.3326 11.9855C21.5586 11.8919 21.8072 11.8674 22.0471 11.9151C22.287 11.9628 22.5073 12.0806 22.6803 12.2536C22.8532 12.4265 22.971 12.6468 23.0187 12.8867C23.0664 13.1266 23.0419 13.3753 22.9483 13.6012C22.8547 13.8272 22.6962 14.0203 22.4929 14.1562C22.2895 14.2921 22.0504 14.3646 21.8058 14.3646C21.4779 14.3646 21.1633 14.2343 20.9314 14.0024C20.6995 13.7705 20.5692 13.456 20.5692 13.128Z" fill="black"/>
<path d="M8.72235 22.1108C9.29506 20.789 10.2418 19.6634 11.446 18.8728C12.6502 18.0821 14.0594 17.6609 15.5 17.6609C16.9406 17.6609 18.3497 18.0821 19.5539 18.8728C20.7582 19.6634 21.7049 20.789 22.2776 22.1108" stroke="black" stroke-width="1.5" stroke-linecap="round" stroke-linejoin="round"/>
<path d="M8.14807 8.88916L11.3838 10.8501" stroke="black" stroke-width="1.5" stroke-linecap="round" stroke-linejoin="round"/>
<path d="M22.8543 8.88916L19.6162 10.8501" stroke="black" stroke-width="1.5" stroke-linecap="round" stroke-linejoin="round"/>
</svg>
