<svg width="31" height="31" viewBox="0 0 31 31" fill="none" xmlns="http://www.w3.org/2000/svg">
<path d="M29.1156 18.7133C30.8909 11.1915 26.2324 3.65467 18.7106 1.87936C11.1888 0.104045 3.65197 4.76251 1.87666 12.2843C0.101346 19.8062 4.75981 27.343 12.2816 29.1183C19.8035 30.8936 27.3403 26.2351 29.1156 18.7133Z" stroke="black" stroke-width="1.5" stroke-linecap="round" stroke-linejoin="round"/>
<path d="M7.95758 12.2441C7.95758 11.9995 8.03011 11.7604 8.16599 11.557C8.30187 11.3537 8.495 11.1952 8.72097 11.1016C8.94693 11.008 9.19558 10.9835 9.43546 11.0312C9.67534 11.0789 9.89569 11.1967 10.0686 11.3696C10.2416 11.5426 10.3594 11.7629 10.4071 12.0028C10.4548 12.2427 10.4303 12.4913 10.3367 12.7173C10.2431 12.9433 10.0846 13.1364 9.88124 13.2723C9.67788 13.4082 9.43879 13.4807 9.19421 13.4807C8.86624 13.4807 8.55169 13.3504 8.31978 13.1185C8.08787 12.8866 7.95758 12.572 7.95758 12.2441Z" fill="black"/>
<path d="M20.5716 12.2441C20.5716 11.9995 20.6441 11.7604 20.78 11.557C20.9159 11.3537 21.109 11.1952 21.335 11.1016C21.5609 11.008 21.8096 10.9835 22.0495 11.0312C22.2894 11.0789 22.5097 11.1967 22.6826 11.3696C22.8556 11.5426 22.9734 11.7629 23.0211 12.0028C23.0688 12.2427 23.0443 12.4913 22.9507 12.7173C22.8571 12.9433 22.6986 13.1364 22.4953 13.2723C22.2919 13.4082 22.0528 13.4807 21.8082 13.4807C21.4802 13.4807 21.1657 13.3504 20.9338 13.1185C20.7019 12.8866 20.5716 12.572 20.5716 12.2441Z" fill="black"/>
<path d="M23.0258 17.8434C22.5255 19.4477 21.5255 20.8501 20.1718 21.8459C18.8182 22.8417 17.1817 23.3788 15.5012 23.3788C13.8207 23.3788 12.1842 22.8417 10.8305 21.8459C9.47683 20.8501 8.47687 19.4477 7.97656 17.8434" stroke="black" stroke-width="1.5" stroke-linecap="round" stroke-linejoin="round"/>
<path d="M8.57471 17.4979L7.14032 18.1865" stroke="black" stroke-width="1.5" stroke-linecap="round" stroke-linejoin="round"/>
<path d="M22.4277 17.4979L23.8621 18.1865" stroke="black" stroke-width="1.5" stroke-linecap="round" stroke-linejoin="round"/>
</svg>
