<svg width="31" height="31" viewBox="0 0 31 31" fill="none" xmlns="http://www.w3.org/2000/svg">
<path d="M7.95508 12.244C7.95461 11.9993 8.02674 11.76 8.16233 11.5563C8.29793 11.3527 8.4909 11.1938 8.71682 11.0998C8.94275 11.0059 9.19145 10.981 9.43149 11.0285C9.67153 11.0759 9.8921 11.1935 10.0653 11.3664C10.2385 11.5392 10.3565 11.7596 10.4044 11.9995C10.4523 12.2395 10.428 12.4882 10.3344 12.7143C10.2409 12.9404 10.0824 13.1337 9.87899 13.2697C9.67558 13.4057 9.43639 13.4783 9.19171 13.4783C8.86415 13.4783 8.54996 13.3483 8.31812 13.1169C8.08627 12.8855 7.95571 12.5716 7.95508 12.244Z" fill="black"/>
<path d="M20.5835 12.244C20.583 11.9993 20.6551 11.76 20.7907 11.5563C20.9263 11.3527 21.1193 11.1938 21.3452 11.0998C21.5712 11.0059 21.8199 10.981 22.0599 11.0285C22.3 11.0759 22.5205 11.1935 22.6937 11.3664C22.8669 11.5392 22.9849 11.7596 23.0328 11.9995C23.0807 12.2395 23.0564 12.4882 22.9628 12.7143C22.8693 12.9404 22.7108 13.1337 22.5074 13.2697C22.304 13.4057 22.0648 13.4783 21.8201 13.4783C21.4926 13.4783 21.1784 13.3483 20.9465 13.1169C20.7147 12.8855 20.5841 12.5716 20.5835 12.244Z" fill="black"/>
<path d="M15.5012 29.4949C23.2297 29.4949 29.4949 23.2297 29.4949 15.5012C29.4949 7.77275 23.2297 1.50757 15.5012 1.50757C7.77269 1.50757 1.50751 7.77275 1.50751 15.5012C1.50751 23.2297 7.77269 29.4949 15.5012 29.4949Z" stroke="black" stroke-width="1.5" stroke-linecap="round" stroke-linejoin="round"/>
<path d="M8.27679 19.3207H22.7256" stroke="black" stroke-width="1.5" stroke-linecap="round" stroke-linejoin="round"/>
</svg>
