<svg width="31" height="31" viewBox="0 0 31 31" fill="none" xmlns="http://www.w3.org/2000/svg">
<path d="M7.95758 12.244C7.95758 11.9993 8.03017 11.7601 8.16616 11.5567C8.30215 11.3533 8.49542 11.1948 8.72152 11.1012C8.94763 11.0077 9.19639 10.9834 9.43634 11.0313C9.67628 11.0792 9.89663 11.1972 10.0695 11.3704C10.2423 11.5436 10.3599 11.7641 10.4074 12.0042C10.4548 12.2442 10.43 12.4929 10.336 12.7188C10.2421 12.9448 10.0832 13.1377 9.8795 13.2733C9.67583 13.4089 9.43651 13.4811 9.19183 13.4806C9.02954 13.4806 8.86885 13.4486 8.71895 13.3864C8.56905 13.3242 8.43289 13.2331 8.31825 13.1182C8.20361 13.0034 8.11273 12.867 8.05085 12.717C7.98896 12.567 7.95727 12.4062 7.95758 12.244Z" fill="black"/>
<path d="M20.5716 12.244C20.5716 11.9993 20.6442 11.7601 20.7802 11.5567C20.9162 11.3533 21.1095 11.1948 21.3356 11.1012C21.5617 11.0077 21.8104 10.9834 22.0504 11.0313C22.2903 11.0792 22.5107 11.1972 22.6835 11.3704C22.8564 11.5436 22.974 11.7641 23.0214 12.0042C23.0689 12.2442 23.044 12.4929 22.9501 12.7188C22.8561 12.9448 22.6972 13.1377 22.4935 13.2733C22.2899 13.4089 22.0506 13.4811 21.8059 13.4806C21.6436 13.4806 21.4829 13.4486 21.333 13.3864C21.1831 13.3242 21.0469 13.2331 20.9323 13.1182C20.8177 13.0034 20.7268 12.867 20.6649 12.717C20.603 12.567 20.5713 12.4062 20.5716 12.244Z" fill="black"/>
<path d="M25.3954 25.3973C30.8602 19.9325 30.8602 11.0722 25.3954 5.60729C19.9305 0.142425 11.0702 0.142423 5.60532 5.60729C0.140455 11.0722 0.140448 19.9325 5.60532 25.3973C11.0702 30.8622 19.9305 30.8622 25.3954 25.3973Z" stroke="black" stroke-width="1.5" stroke-linecap="round" stroke-linejoin="round"/>
<path d="M23.0234 17.8434C22.5238 19.448 21.5242 20.8509 20.1707 21.8471C18.8171 22.8433 17.1805 23.3806 15.4999 23.3806C13.8193 23.3806 12.1827 22.8433 10.8292 21.8471C9.47568 20.8509 8.47613 19.448 7.97653 17.8434H23.0234Z" stroke="black" stroke-width="1.5" stroke-linecap="round" stroke-linejoin="round"/>
</svg>
