<svg width="17" height="17" viewBox="0 0 17 17" fill="none" xmlns="http://www.w3.org/2000/svg">
<path fill-rule="evenodd" clip-rule="evenodd" d="M2.32826 14.6818H14.7457V5.40909H2.32826V14.6818ZM4.4237 1.85455C4.88935 2.31818 4.88935 3.09091 4.4237 3.55455C3.95805 4.01818 3.18196 4.01818 2.71631 3.55455C2.25065 3.09091 2.25065 2.31818 2.71631 1.85455C3.18196 1.39091 3.95805 1.39091 4.4237 1.85455ZM14.2024 1.85455C14.6681 2.31818 14.6681 3.09091 14.2024 3.55455C13.7367 4.01818 12.9607 4.01818 12.495 3.55455C12.0294 3.09091 12.0294 2.31818 12.495 1.85455C12.9607 1.39091 13.7367 1.39091 14.2024 1.85455ZM2.09544 0C1.24174 0 0 0.85 0 2.16364V15.1455C0 15.9955 1.16413 17 2.09544 17H14.5128C15.4441 17 16.9963 16.6136 16.9963 15.3V2.31818C17.0739 0.618182 15.9098 0 14.9785 0H2.09544Z" fill="black"/>
</svg>
