<svg width="22" height="21" viewBox="0 0 22 21" fill="none" xmlns="http://www.w3.org/2000/svg">
<path fill-rule="evenodd" clip-rule="evenodd" d="M10.9981 16.1298C7.91516 16.1298 5.36835 13.6277 5.36835 10.5C5.36835 7.41702 7.87048 4.87021 10.9981 4.87021C14.1258 4.87021 16.6279 7.41702 16.6279 10.5C16.6279 13.583 14.0811 16.1298 10.9981 16.1298ZM20.6045 9.20426H18.862C18.862 9.20426 18.8173 9.20426 18.8173 9.15957C18.6386 7.95319 18.1471 6.88085 17.4769 5.89787V5.85319L18.6832 4.64681C18.862 4.46809 18.9513 4.24468 18.9513 4.02128C18.9513 3.79787 18.862 3.57447 18.6832 3.39574L18.1471 2.81489C17.9683 2.63617 17.7449 2.54681 17.5215 2.54681C17.2981 2.54681 17.0747 2.63617 16.896 2.81489L15.6896 4.02128H15.6449C14.662 3.30638 13.5449 2.85957 12.3832 2.68085C12.3832 2.68085 12.3386 2.68085 12.3386 2.63617V0.893617C12.3386 0.402128 11.9364 0 11.4449 0H10.6407C10.1492 0 9.74707 0.402128 9.74707 0.893617V2.63617C9.74707 2.63617 9.74707 2.68085 9.70239 2.68085C8.49601 2.85957 7.42367 3.35106 6.44069 4.02128H6.39601L5.18963 2.81489C4.96622 2.63617 4.74282 2.54681 4.47473 2.54681C4.20665 2.54681 4.02793 2.63617 3.8492 2.81489L3.31303 3.35106C3.13431 3.52979 3.04495 3.75319 3.04495 3.9766C3.04495 4.2 3.13431 4.4234 3.31303 4.60213L4.51941 5.80851V5.85319C3.80452 6.83617 3.35771 7.95319 3.17899 9.11489C3.17899 9.11489 3.17899 9.15957 3.13431 9.15957H1.39176C0.900266 9.15957 0.498138 9.5617 0.498138 10.0532V10.8574C0.498138 11.3489 0.900266 11.7511 1.39176 11.7511H3.13431C3.13431 11.7511 3.17899 11.7511 3.17899 11.7957C3.35771 13.0021 3.8492 14.0745 4.51941 15.0574V15.1021L3.31303 16.3085C3.13431 16.4872 3.04495 16.7106 3.04495 16.934C3.04495 17.1574 3.13431 17.3808 3.31303 17.5596L3.8492 18.1851C4.02793 18.3638 4.25133 18.4532 4.47473 18.4532C4.69814 18.4532 4.92154 18.3638 5.10027 18.1851L6.30665 16.9787H6.35133C7.33431 17.6936 8.45133 18.1404 9.61303 18.3191C9.61303 18.3191 9.65771 18.3191 9.65771 18.3638V20.1064C9.65771 20.5979 10.0598 21 10.5513 21H11.3556C11.8471 21 12.2492 20.5979 12.2492 20.1064V18.3638C12.2492 18.3638 12.2492 18.3191 12.2939 18.3191C13.5003 18.1404 14.5726 17.6489 15.5556 16.9787H15.6003L16.8066 18.1851C16.9854 18.3638 17.2088 18.4532 17.4322 18.4532C17.6556 18.4532 17.879 18.3638 18.0577 18.1851L18.5939 17.6489C18.7726 17.4702 18.862 17.2468 18.862 17.0234C18.862 16.8 18.7726 16.5766 18.5939 16.3979L17.3875 15.1915V15.1468C18.1024 14.1638 18.5492 13.0468 18.7279 11.8851C18.7279 11.8851 18.7279 11.8404 18.7726 11.8404H20.5152C21.0066 11.8404 21.4088 11.4383 21.4088 10.9468V10.1426C21.4981 9.60638 21.096 9.20426 20.6045 9.20426Z" fill="black"/>
</svg>
