<svg width="18" height="14" viewBox="0 0 18 14" fill="none" xmlns="http://www.w3.org/2000/svg">
<path fill-rule="evenodd" clip-rule="evenodd" d="M15.4222 14H18V1.28889C18 0.577056 17.4229 0 16.7111 0C15.9993 0 15.4222 0.577056 15.4222 1.28889V14ZM5.13757 14H7.71535V3.36504C7.71535 2.6532 7.13829 2.07615 6.42646 2.07615C5.71462 2.07615 5.13757 2.6532 5.13757 3.36504V14ZM10.2844 14H12.8532V5.43669C12.8532 4.72734 12.2781 4.1523 11.5688 4.1523C10.8594 4.1523 10.2844 4.72734 10.2844 5.43669V14ZM0 14H2.56878V7.50376C2.56878 6.79441 1.99374 6.21937 1.28439 6.21937C0.575042 6.21937 0 6.79441 0 7.50376V14Z" fill="black"/>
</svg>
