<svg width="22" height="17" viewBox="0 0 22 17" fill="none" xmlns="http://www.w3.org/2000/svg">
<path fill-rule="evenodd" clip-rule="evenodd" d="M16.552 14.8658H5.45134V6.66017L11.0017 2.42857L16.552 6.66017V14.8658ZM21.5844 7.83766L11.6677 0.220779C11.2977 -0.0735931 10.7427 -0.0735931 10.3726 0.220779L0.419025 7.83766C-0.0620052 8.20563 -0.13601 8.86796 0.234013 9.34632C0.604037 9.82468 1.27008 9.89827 1.75111 9.5303L3.34221 8.31602V15.9325C3.34221 16.5216 3.82324 17 4.41528 17H17.6251C18.2171 17 18.6982 16.5216 18.6982 15.9325V8.31602L20.2893 9.5303C20.4743 9.67749 20.7333 9.75108 20.9553 9.75108C21.2883 9.75108 21.5844 9.6039 21.8064 9.34632C22.1394 8.86796 22.0284 8.20563 21.5844 7.83766Z" fill="black"/>
</svg>
